<svg id="eS0I1f5HcNd1" xmlns="http://www.w3.org/2000/svg" xmlns:xlink="http://www.w3.org/1999/xlink" viewBox="0 0 300 300" shape-rendering="geometricPrecision" text-rendering="geometricPrecision"><defs><linearGradient id="eS0I1f5HcNd2-fill" x1="0.946202" y1="1" x2="0.174077" y2="0" spreadMethod="pad" gradientUnits="objectBoundingBox" gradientTransform="translate(0 0)"><stop id="eS0I1f5HcNd2-fill-0" offset="0%" stop-color="#093b8e"/><stop id="eS0I1f5HcNd2-fill-1" offset="100%" stop-color="#71f6b8"/></linearGradient></defs><path d="M-103.988209,-0.656077C-105.300364,-80.697475,-83.649821,-104.768424,0,-104.378317s104.644287,19.088303,104.378317,104.378317-16.792033,103.332132-104.378317,104.378317-102.676055-19.74438-103.988209-105.034394Z" transform="matrix(1.180665 0 0 1.180665 152.996255 145.488323)" fill="url(#eS0I1f5HcNd2-fill)" stroke-width="0"/><path d="M60.000002,108.95659c0,0-.006894,9.71418,58.281598-29.142596c58.274689,38.856776,48.544775,29.142596,48.544775,29.142596s9.736808,82.708743,9.736808,82.708743-42.740363,0-42.740363,0s0-44.785193,0-58.285192c-18.64565-14.709353-19.068652-4.995154-31.068652-4.995154c0,13.499999,0,63.280346,0,63.280346q-42.754166,0-42.754166,0c0,0,0-82.708743,0-82.708743Z" transform="matrix(-1.029977 0 0-1.029421 271.827328 292.162202)" fill="#fff" stroke-width="0"/></svg>
